# xmcd
#
# Track frame offsets:
#	150
#	11773
#	23283
#	33589
#	45580
#	56558
#	68326
#	80298
#	102432
#	114035
#	129476
#	143217
#	154722
#	164225
#	182911
#
# Disc length: 2704 seconds
#
# Revision: 0
# Processed by: cddbd v1.5.1PL2 Copyright (c) Steve Scherf et al.
# Submitted via: audiograbber 1.83.01
#
DISCID=ba0a8e0f
DTITLE=Time Life - Treasury of Bluegrass Vol. 2 Disc 1
DYEAR=1900
DGENRE=Bluegrass
TTITLE0=Jimmy Martin - Hit Parade of Love
TTITLE1=Lester Hatt and Earl Scruggs - Old Salty Dog Blues
TTITLE2=The Stanley Brothers - She's More to Be Pitied
TTITLE3=Bill Monroe - A Voice from On High
TTITLE4=Jim Eanes - I Wouldn't Change You If I Could
TTITLE5=The Stanley Brothers with the Clinch Mountain Boys - The Fields Have Tu
TTITLE5=rned Brown
TTITLE6=Bill Monroe - Rawhide
TTITLE7=The Nitty Gritty Dirt Band - Will the Circle Be Unbroken
TTITLE8=The Osborne Brothers - Tennessee Hound Dog
TTITLE9=Ricky Scaggs - Little Cabin Home on the Hill
TTITLE10=Jimmy Martin - Widow Maker
TTITLE11=The Bluegrass Album Band - On the Way Back to the Old Home
TTITLE12=The Dillards - Dooley
TTITLE13=Here Today - Lonesome River
TTITLE14=The Cox Family - When God Dips His Pen of Love in My Heart
EXTD=
EXTT0=
EXTT1=
EXTT2=
EXTT3=
EXTT4=
EXTT5=
EXTT6=
EXTT7=
EXTT8=
EXTT9=
EXTT10=
EXTT11=
EXTT12=
EXTT13=
EXTT14=
PLAYORDER=
